# Blender 5.1.2
# www.blender.org
mtllib ghost.mtl
o 平面.001
v 0.314306 0.949267 -1.319541
v -0.314306 0.949267 -1.319541
v 0.314306 1.556460 -1.156844
v -0.314306 1.556460 -1.156845
v -0.000000 -1.000000 1.640868
v -0.635762 -1.000000 1.514407
v -1.174734 -1.000000 1.154277
v -1.534864 -1.000000 0.615304
v -1.661325 -1.000000 -0.020457
v -1.534864 -1.000000 -0.656219
v -1.174734 -1.000000 -1.195191
v -0.635762 -1.000000 -1.555321
v 0.000000 -1.000000 -1.681782
v 0.635762 -1.000000 -1.555321
v 1.174734 -1.000000 -1.195191
v 1.534864 -1.000000 -0.656218
v 1.661325 -1.000000 -0.020457
v 1.534864 -1.000000 0.615305
v 1.174734 -1.000000 1.154277
v 0.635761 -1.000000 1.514407
v -0.000000 2.041979 0.523489
v -0.000000 1.335886 1.007327
v -0.000000 1.931599 0.751516
v -0.000000 1.648193 0.918444
v -0.208159 2.041979 0.482084
v -0.393316 1.335886 0.929092
v -0.295422 1.931600 0.692753
v -0.359302 1.648194 0.846974
v -0.384628 2.041979 0.364171
v -0.726753 1.335886 0.706296
v -0.545868 1.931599 0.525411
v -0.663903 1.648193 0.643446
v -0.502541 2.041979 0.187702
v -0.949549 1.335886 0.372859
v -0.713210 1.931599 0.274964
v -0.867431 1.648194 0.338845
v -0.543946 2.041979 -0.020457
v -1.027784 1.335886 -0.020457
v -0.771973 1.931599 -0.020457
v -0.938901 1.648193 -0.020457
v -0.502541 2.041979 -0.228616
v -0.949549 1.335886 -0.413773
v -0.713210 1.931600 -0.315878
v -0.867431 1.648194 -0.379759
v -0.384628 2.041979 -0.405085
v -0.726753 1.335886 -0.747210
v -0.545868 1.931600 -0.566324
v -0.663903 1.648193 -0.684360
v -0.208159 2.041979 -0.522998
v -0.393316 1.335886 -0.970006
v -0.295421 1.931599 -0.733667
v -0.359302 1.648194 -0.887888
v -0.000000 2.041979 -0.564403
v -0.000000 1.335886 -1.048241
v -0.000000 1.931599 -0.792430
v -0.000000 1.648193 -0.959357
v 0.208159 2.041979 -0.522998
v 0.393316 1.335886 -0.970006
v 0.295421 1.931599 -0.733667
v 0.359302 1.648194 -0.887888
v 0.384628 2.041979 -0.405085
v 0.726753 1.335886 -0.747210
v 0.545867 1.931600 -0.566324
v 0.663903 1.648193 -0.684360
v 0.502541 2.041979 -0.228616
v 0.949549 1.335886 -0.413773
v 0.713210 1.931600 -0.315878
v 0.867431 1.648194 -0.379759
v 0.543946 2.041979 -0.020457
v 1.027784 1.335886 -0.020457
v 0.771973 1.931599 -0.020457
v 0.938900 1.648193 -0.020457
v 0.502541 2.041979 0.187702
v 0.949549 1.335886 0.372859
v 0.713210 1.931599 0.274964
v 0.867431 1.648194 0.338845
v 0.384628 2.041979 0.364171
v 0.726753 1.335886 0.706296
v 0.545867 1.931599 0.525411
v 0.663903 1.648193 0.643446
v 0.208159 2.041979 0.482084
v 0.393316 1.335886 0.929092
v 0.295421 1.931600 0.692753
v 0.359301 1.648194 0.846974
v 0.463628 1.700694 -1.019228
v -0.463628 1.700694 -1.019228
v 0.463628 0.805033 -1.259220
v -0.463628 0.805033 -1.259220
vn -0.0000 0.2588 -0.9659
vn -0.0000 -0.5640 0.8258
vn -0.3160 -0.5640 0.7629
vn -0.5839 -0.5640 0.5839
vn -0.7629 -0.5640 0.3160
vn -0.8258 -0.5640 -0.0000
vn -0.7629 -0.5640 -0.3160
vn -0.5839 -0.5640 -0.5839
vn -0.3160 -0.5640 -0.7629
vn -0.0000 -0.5640 -0.8258
vn 0.3160 -0.5640 -0.7629
vn 0.5839 -0.5640 -0.5839
vn 0.7629 -0.5640 -0.3160
vn 0.8258 -0.5640 -0.0000
vn 0.7629 -0.5640 0.3160
vn 0.5839 -0.5640 0.5839
vn 0.3160 -0.5640 0.7629
vn -0.3687 0.2676 0.8902
vn -0.0000 0.2676 0.9635
vn -0.0000 0.3882 0.9216
vn -0.3527 0.3882 0.8514
vn -0.0000 0.7177 0.6963
vn -0.2665 0.7177 0.6433
vn -0.0000 0.9683 0.2497
vn -0.0956 0.9683 0.2307
vn -0.6813 0.2676 0.6813
vn -0.6516 0.3882 0.6516
vn -0.4924 0.7177 0.4924
vn -0.1766 0.9683 0.1766
vn -0.8902 0.2676 0.3687
vn -0.8514 0.3882 0.3527
vn -0.6433 0.7177 0.2665
vn -0.2307 0.9683 0.0956
vn -0.9635 0.2676 -0.0000
vn -0.9216 0.3882 -0.0000
vn -0.6963 0.7177 -0.0000
vn -0.2497 0.9683 -0.0000
vn -0.8902 0.2676 -0.3687
vn -0.8514 0.3882 -0.3527
vn -0.6433 0.7177 -0.2665
vn -0.2307 0.9683 -0.0956
vn -0.6813 0.2676 -0.6813
vn -0.6516 0.3882 -0.6516
vn -0.4924 0.7177 -0.4924
vn -0.1766 0.9683 -0.1766
vn -0.3687 0.2676 -0.8902
vn -0.3527 0.3882 -0.8514
vn -0.2665 0.7177 -0.6433
vn -0.0956 0.9683 -0.2307
vn -0.0000 0.2676 -0.9635
vn -0.0000 0.3882 -0.9216
vn -0.0000 0.7177 -0.6963
vn -0.0000 0.9683 -0.2497
vn 0.3687 0.2676 -0.8902
vn 0.3527 0.3882 -0.8514
vn 0.2665 0.7177 -0.6433
vn 0.0956 0.9683 -0.2307
vn 0.6813 0.2676 -0.6813
vn 0.6516 0.3882 -0.6516
vn 0.4924 0.7177 -0.4924
vn 0.1766 0.9683 -0.1766
vn 0.8902 0.2676 -0.3687
vn 0.8514 0.3882 -0.3527
vn 0.6433 0.7177 -0.2665
vn 0.2307 0.9683 -0.0956
vn 0.9635 0.2676 -0.0000
vn 0.9216 0.3882 -0.0000
vn 0.6963 0.7177 -0.0000
vn 0.2497 0.9683 -0.0000
vn 0.8902 0.2676 0.3687
vn 0.8514 0.3882 0.3527
vn 0.6433 0.7177 0.2665
vn 0.2307 0.9683 0.0956
vn 0.6813 0.2676 0.6813
vn 0.6516 0.3882 0.6516
vn 0.4924 0.7177 0.4924
vn 0.1766 0.9683 0.1766
vn 0.3687 0.2676 0.8902
vn 0.3527 0.3882 0.8514
vn 0.2665 0.7177 0.6433
vn 0.0956 0.9683 0.2307
vt 0.672162 0.124734
vt 0.868684 0.124734
vt 0.868684 0.321257
vt 0.672162 0.321257
vt 0.378989 0.705477
vt 0.423376 0.696648
vt 0.461005 0.671505
vt 0.486148 0.633876
vt 0.494977 0.589490
vt 0.486148 0.545104
vt 0.461005 0.507475
vt 0.423376 0.482332
vt 0.378989 0.473503
vt 0.334603 0.482332
vt 0.296974 0.507475
vt 0.271831 0.545104
vt 0.263002 0.589490
vt 0.271831 0.633876
vt 0.296974 0.671505
vt 0.334603 0.696648
vt 0.469604 0.897908
vt 0.499809 0.897908
vt 0.498887 0.951950
vt 0.469604 0.951950
vt 0.181633 0.696399
vt 0.137349 0.705207
vt 0.137349 0.679029
vt 0.171615 0.672213
vt 0.137349 0.652581
vt 0.161493 0.647778
vt 0.439399 0.897908
vt 0.439399 0.951950
vt 0.219174 0.671315
vt 0.200663 0.652804
vt 0.181961 0.634102
vt 0.409194 0.897908
vt 0.409194 0.951950
vt 0.244258 0.633773
vt 0.220073 0.623755
vt 0.195638 0.613634
vt 0.378989 0.897908
vt 0.378989 0.951950
vt 0.253067 0.589490
vt 0.226888 0.589490
vt 0.200440 0.589490
vt 0.348784 0.897908
vt 0.348784 0.951950
vt 0.244258 0.545207
vt 0.220073 0.555225
vt 0.195638 0.565346
vt 0.318579 0.897908
vt 0.318579 0.951950
vt 0.219174 0.507665
vt 0.200663 0.526176
vt 0.181961 0.544878
vt 0.288374 0.897908
vt 0.288374 0.951950
vt 0.181633 0.482581
vt 0.171615 0.506767
vt 0.161493 0.531202
vt 0.258169 0.897908
vt 0.258169 0.951950
vt 0.137349 0.473773
vt 0.137349 0.499951
vt 0.137349 0.526399
vt 0.227964 0.897908
vt 0.227964 0.951950
vt 0.093066 0.482581
vt 0.103084 0.506767
vt 0.113206 0.531202
vt 0.197759 0.897908
vt 0.197759 0.951950
vt 0.055525 0.507665
vt 0.074036 0.526176
vt 0.092738 0.544878
vt 0.167554 0.897908
vt 0.167554 0.951950
vt 0.030440 0.545207
vt 0.054626 0.555225
vt 0.079061 0.565346
vt 0.137349 0.897908
vt 0.137349 0.951950
vt 0.021632 0.589490
vt 0.047810 0.589490
vt 0.074259 0.589490
vt 0.107144 0.897908
vt 0.107144 0.951950
vt 0.030440 0.633773
vt 0.054626 0.623755
vt 0.079061 0.613634
vt 0.076939 0.897908
vt 0.076939 0.951950
vt 0.055525 0.671315
vt 0.074036 0.652804
vt 0.092738 0.634102
vt 0.046734 0.897908
vt 0.046734 0.951950
vt 0.093066 0.696399
vt 0.103084 0.672213
vt 0.113206 0.647778
vt 0.016529 0.897908
vt 0.017452 0.951950
vt 0.499809 0.710310
vt 0.469604 0.710310
vt 0.046734 0.710310
vt 0.016529 0.710310
vt 0.439399 0.710310
vt 0.409194 0.710310
vt 0.378989 0.710310
vt 0.348784 0.710310
vt 0.318579 0.710310
vt 0.288374 0.710310
vt 0.258169 0.710310
vt 0.227964 0.710310
vt 0.197759 0.710310
vt 0.167554 0.710310
vt 0.137349 0.710310
vt 0.107144 0.710310
vt 0.076939 0.710310
vt 0.631027 0.668232
vt 0.631027 0.939445
vt 0.902240 0.939445
vt 0.902240 0.668232
s 0
usemtl マテリアル
f 1/1/1 2/2/1 4/3/1 3/4/1
s 1
f 5/5/2 6/6/3 7/7/4 8/8/5 9/9/6 10/10/7 11/11/8 12/12/9 13/13/10 14/14/11 15/15/12 16/16/13 17/17/14 18/18/15 19/19/16 20/20/17
f 26/21/18 22/22/19 24/23/20 28/24/21
f 28/25/21 24/26/20 23/27/22 27/28/23
f 27/28/23 23/27/22 21/29/24 25/30/25
f 30/31/26 26/21/18 28/24/21 32/32/27
f 32/33/27 28/25/21 27/28/23 31/34/28
f 31/34/28 27/28/23 25/30/25 29/35/29
f 34/36/30 30/31/26 32/32/27 36/37/31
f 36/38/31 32/33/27 31/34/28 35/39/32
f 35/39/32 31/34/28 29/35/29 33/40/33
f 38/41/34 34/36/30 36/37/31 40/42/35
f 40/43/35 36/38/31 35/39/32 39/44/36
f 39/44/36 35/39/32 33/40/33 37/45/37
f 42/46/38 38/41/34 40/42/35 44/47/39
f 44/48/39 40/43/35 39/44/36 43/49/40
f 43/49/40 39/44/36 37/45/37 41/50/41
f 46/51/42 42/46/38 44/47/39 48/52/43
f 48/53/43 44/48/39 43/49/40 47/54/44
f 47/54/44 43/49/40 41/50/41 45/55/45
f 50/56/46 46/51/42 48/52/43 52/57/47
f 52/58/47 48/53/43 47/54/44 51/59/48
f 51/59/48 47/54/44 45/55/45 49/60/49
f 54/61/50 50/56/46 52/57/47 56/62/51
f 56/63/51 52/58/47 51/59/48 55/64/52
f 55/64/52 51/59/48 49/60/49 53/65/53
f 58/66/54 54/61/50 56/62/51 60/67/55
f 60/68/55 56/63/51 55/64/52 59/69/56
f 59/69/56 55/64/52 53/65/53 57/70/57
f 62/71/58 58/66/54 60/67/55 64/72/59
f 64/73/59 60/68/55 59/69/56 63/74/60
f 63/74/60 59/69/56 57/70/57 61/75/61
f 66/76/62 62/71/58 64/72/59 68/77/63
f 68/78/63 64/73/59 63/74/60 67/79/64
f 67/79/64 63/74/60 61/75/61 65/80/65
f 70/81/66 66/76/62 68/77/63 72/82/67
f 72/83/67 68/78/63 67/79/64 71/84/68
f 71/84/68 67/79/64 65/80/65 69/85/69
f 74/86/70 70/81/66 72/82/67 76/87/71
f 76/88/71 72/83/67 71/84/68 75/89/72
f 75/89/72 71/84/68 69/85/69 73/90/73
f 78/91/74 74/86/70 76/87/71 80/92/75
f 80/93/75 76/88/71 75/89/72 79/94/76
f 79/94/76 75/89/72 73/90/73 77/95/77
f 82/96/78 78/91/74 80/92/75 84/97/79
f 84/98/79 80/93/75 79/94/76 83/99/80
f 83/99/80 79/94/76 77/95/77 81/100/81
f 22/101/19 82/96/78 84/97/79 24/102/20
f 24/26/20 84/98/79 83/99/80 23/27/22
f 23/27/22 83/99/80 81/100/81 21/29/24
f 25/30/25 21/29/24 81/100/81 77/95/77 73/90/73 69/85/69 65/80/65 61/75/61 57/70/57 53/65/53 49/60/49 45/55/45 41/50/41 37/45/37 33/40/33 29/35/29
f 5/103/2 22/22/19 26/21/18 6/104/3
f 20/105/17 82/96/78 22/101/19 5/106/2
f 6/104/3 26/21/18 30/31/26 7/107/4
f 7/107/4 30/31/26 34/36/30 8/108/5
f 8/108/5 34/36/30 38/41/34 9/109/6
f 9/109/6 38/41/34 42/46/38 10/110/7
f 10/110/7 42/46/38 46/51/42 11/111/8
f 11/111/8 46/51/42 50/56/46 12/112/9
f 12/112/9 50/56/46 54/61/50 13/113/10
f 13/113/10 54/61/50 58/66/54 14/114/11
f 14/114/11 58/66/54 62/71/58 15/115/12
f 15/115/12 62/71/58 66/76/62 16/116/13
f 16/116/13 66/76/62 70/81/66 17/117/14
f 17/117/14 70/81/66 74/86/70 18/118/15
f 18/118/15 74/86/70 78/91/74 19/119/16
f 19/119/16 78/91/74 82/96/78 20/105/17
s 0
f 85/120/1 87/121/1 88/122/1 86/123/1
